Coordinates
version=1
nRows=13
nColumns=18
inDegrees=yes

Units are S.I. units (second, meters, Newtons, ...)
If the header above contains a line with 'inDegrees', this indicates whether rotational values are in degrees (yes) or radians (no).

endheader
time	bJoint_3	seatpos	slocangle	soarinout	sblpos	hipangle	kneeangle	footangle	lbackangle	uarmleft_out	uarmleft_trn	uarmleft_up	se_inout	se_updown	handleleft_out	handleleft_trn	handleleft_up
      0.00000000	     -0.00000006	     -0.65635526	     77.36136483	     18.00448245	    -18.00448245	     23.54697651	    144.98747828	     78.53445479	     11.29523330	    -12.53740836	    -43.46514035	    -84.66434776	      4.71342140	     -5.66177367	     -6.59605606	     49.14952708	     33.96443166
      0.00500000	     -0.00000006	     -0.65612484	     77.32951110	     18.01680260	    -18.01680260	     23.55767239	    144.95848120	     78.51615359	     11.24582715	    -12.39089278	    -43.50767399	    -85.22936460	      4.47035417	     -5.47191487	     -6.90388866	     49.63069434	     34.36151770
      0.01000000	     -0.00000006	     -0.65535093	     77.30517777	     17.99482993	    -17.99482993	     23.59366450	    144.86105769	     78.45472219	     11.29083494	    -12.53453897	    -43.46018718	    -85.13946218	      4.62224367	     -5.44626575	     -6.98711949	     49.58495250	     34.46925107
      0.01500000	     -0.00000006	     -0.65513417	     77.27622950	     18.00642569	    -18.00642569	     23.60376343	    144.83376393	     78.43752736	     11.25665807	    -12.49117658	    -43.38608118	    -85.15252656	      4.58251233	     -5.47868315	     -6.95676017	     49.60036835	     34.46079066
      0.02000000	     -0.00000006	     -0.65412915	     77.22067471	     17.99881089	    -17.99881089	     23.65069205	    144.70717106	     78.35786311	     11.25245832	    -12.47362702	    -43.37647162	    -85.12270543	      4.51543838	     -5.23772292	     -6.88241985	     49.61687854	     34.60171132
      0.02500000	     -0.00000006	     -0.65336236	     77.20676735	     18.00300345	    -18.00300345	     23.68661166	    144.61053720	     78.29714886	     11.30292228	    -12.61638927	    -43.20632502	    -85.11187467	      4.60591937	     -5.54391150	     -6.93967678	     49.63752467	     34.49343997
      0.03000000	     -0.00000006	     -0.65310816	     77.15252842	     18.00632808	    -18.00632808	     23.69854121	    144.57849279	     78.27703401	     11.23048466	    -12.46089157	    -43.18752885	    -85.12563145	      4.47516542	     -5.33763013	     -6.84147469	     49.64814806	     34.59493926
      0.03500000	     -0.00000006	     -0.65211759	     77.09893770	     17.99591244	    -17.99591244	     23.74513124	    144.45357875	     78.19870999	     11.24153882	    -12.56089333	    -43.06723465	    -85.04863716	      4.58757957	     -5.34164139	     -6.89388066	     49.61713216	     34.69483753
      0.04000000	     -0.00000006	     -0.65111980	     77.05367055	     18.01469186	    -18.01469186	     23.79222510	    144.32768540	     78.11991051	     11.24299025	    -12.54322525	    -42.93425752	    -85.10044613	      4.45885647	     -5.43527460	     -6.79661649	     49.70287315	     34.62014020
      0.04500000	     -0.00000006	     -0.65012967	     76.99999976	     18.00434430	    -18.00434430	     23.83911939	    144.20268947	     78.04180886	     11.25419962	    -12.64244654	    -42.81470541	    -85.03252114	      4.56964330	     -5.43892916	     -6.85565093	     49.67880094	     34.72529505
      0.05000000	     -0.00000006	     -0.64910765	     76.93211077	     18.01384691	    -18.01384691	     23.88769219	    144.07359479	     77.96128698	     11.23257110	    -12.61513860	    -42.62029463	    -85.05066981	      4.50305703	     -5.55728757	     -6.79965801	     49.72217396	     34.69534878
      0.05500000	     -0.00000006	     -0.64810371	     76.87483606	     18.00446038	    -18.00446038	     23.93556992	    143.94671389	     77.88228381	     11.22855958	    -12.61224646	    -42.61668492	    -85.00546934	      4.46235700	     -5.29735138	     -6.74074085	     49.72653699	     34.85816627
      0.06000000	     -0.00000006	     -0.64634542	     76.80775315	     18.00036094	    -18.00036094	     24.01981238	    143.72432445	     77.74413682	     11.29087823	    -12.83863872	    -42.32150289	    -84.93537726	      4.63885898	     -5.62513763	     -6.83436272	     49.72739682	     34.82590877
